<svg xmlns="http://www.w3.org/2000/svg" viewBox="0 0 360 80" fill="currentColor">
  <!-- F -->
  <rect x="0" y="0" width="56" height="12"/>
  <rect x="0" y="0" width="12" height="80"/>
  <rect x="0" y="34" width="40" height="12"/>
  <!-- Y -->
  <rect x="76" y="0" width="12" height="28"/>
  <rect x="120" y="0" width="12" height="28"/>
  <rect x="86" y="22" width="14" height="12"/>
  <rect x="108" y="22" width="14" height="12"/>
  <rect x="96" y="32" width="16" height="48"/>
  <!-- N -->
  <rect x="152" y="0" width="12" height="80"/>
  <rect x="208" y="0" width="12" height="80"/>
  <rect x="164" y="8" width="12" height="14"/>
  <rect x="174" y="20" width="12" height="14"/>
  <rect x="184" y="32" width="12" height="14"/>
  <rect x="196" y="44" width="12" height="14"/>
  <!-- I -->
  <rect x="240" y="0" width="12" height="80"/>
  <!-- T -->
  <rect x="272" y="0" width="56" height="12"/>
  <rect x="294" y="0" width="12" height="80"/>
  <!-- I -->
  <rect x="348" y="0" width="12" height="80"/>
</svg>
