<svg xmlns="http://www.w3.org/2000/svg" viewBox="0 0 128 128">
  <path fill="#F7A80D" d="M38.1 68.8L17.7 80.2c8.4 9.7 20.5 16.5 34.3 18.3l-3.9-21.5c-4-.8-7.3-3.3-10-8.2z"/>
  <path fill="#F7A80D" d="M64 88.5c-4.3 0-8.3-.6-12.1-1.8l3.9 21.5c2.7.3 5.4.5 8.2.5 12.6 0 24.2-4 33.7-10.9L86.1 78.4C79.5 84.6 72.1 88.5 64 88.5z"/>
  <path fill="#252F3E" d="M64 8C35.3 8 12 31.3 12 60s23.3 52 52 52 52-23.3 52-52S92.7 8 64 8zm.3 20.5c5.2 0 9.6 1.5 12.7 5.1l-5.5 6.5c-1.8-2.2-4.2-3.3-7-3.3-5.3 0-9.1 4.5-9.1 11.7v.8c0 7.5 3.5 12 9 12 3.1 0 5.6-1.2 7.6-3.6l5.4 6.2c-3.4 4-8.1 6-13.5 6-10.8 0-18-7.5-18-20.7v-.8C46 36 53.4 28.5 64.3 28.5z"/>
</svg>
