<svg xmlns="http://www.w3.org/2000/svg" viewBox="0 0 128 128">
  <path fill="#2396ED" d="M124.8 52.1c-4.3-2.5-10-2.8-14.8-1.4-.6-5.2-4-9.7-8-12.9l-1.6-1.3-1.4 1.6c-2.7 3.3-3.8 8.7-3.4 12.9.2 2.3.9 4.6 2.2 6.5-1 .6-2.2 1.1-3.2 1.5-2.8 1-5.8 1.6-8.7 1.6H.5l-.5 2.3c-1.1 6.1 0 12.4 3.1 17.5 3.3 5.4 8.4 9.1 14.8 11 7.3 2.2 15.3 2.5 23-.5 6-2.3 11.3-6 15.6-10.8 5.6-6.4 8.9-14.3 10.7-22.6h.9c5.4 0 10.9-1.2 14.5-5.2l1.1-1.2-1.9-1zm-109 6.4h10.6v10.6H15.8V58.5zm13 0h10.7v10.6H28.8V58.5zm0-12.8h10.7v10.6H28.8V45.7zm12.9 12.8h10.7v10.6H41.7V58.5zm0-12.8h10.7v10.6H41.7V45.7zm12.9 12.8h10.7v10.6H54.6V58.5zm0-12.8h10.7v10.6H54.6V45.7zm13 12.8h10.6v10.6H67.6V58.5zm0-12.8h10.6v10.6H67.6V45.7zm0-12.9h10.6v10.6H67.6V32.8zm13 25.7h10.6v10.6H80.6V58.5z"/>
</svg>
